<svg xmlns="http://www.w3.org/2000/svg" width="1024" height="1024" viewBox="0 0 1024 1024">
  <defs>
    <radialGradient id="bg" cx="0.35" cy="0.25" r="1"><stop offset="0" stop-color="#7a1d14"/><stop offset="0.55" stop-color="#3a0d0b"/><stop offset="1" stop-color="#120406"/></radialGradient>
    <linearGradient id="bar" x1="0" y1="0" x2="0" y2="1"><stop offset="0" stop-color="#8a92a2"/><stop offset="0.3" stop-color="#ffffff"/><stop offset="0.6" stop-color="#aab2c2"/><stop offset="1" stop-color="#4a505c"/></linearGradient>
    <linearGradient id="steel" x1="0" y1="0" x2="1" y2="1"><stop offset="0" stop-color="#ffffff"/><stop offset="0.35" stop-color="#9aa3b4"/><stop offset="0.7" stop-color="#e8edf6"/><stop offset="1" stop-color="#4a505c"/></linearGradient>
    <linearGradient id="gold" x1="0" y1="0" x2="1" y2="1"><stop offset="0" stop-color="#fff0b0"/><stop offset="0.5" stop-color="#e6a93a"/><stop offset="1" stop-color="#8a5a0a"/></linearGradient>
    <linearGradient id="red" x1="0" y1="0" x2="0" y2="1"><stop offset="0" stop-color="#ff8a6a"/><stop offset="0.4" stop-color="#d93a26"/><stop offset="1" stop-color="#5a0e08"/></linearGradient>
    <filter id="sh" x="-30%" y="-30%" width="160%" height="170%"><feDropShadow dx="0" dy="18" stdDeviation="14" flood-color="#000" flood-opacity="0.55"/></filter>
  </defs>
  <rect width="1024" height="1024" fill="url(#bg)"/>
  <g filter="url(#sh)">
    <rect x="70" y="470" width="190" height="84" rx="42" fill="url(#red)"/>
    <rect x="120" y="470" width="22" height="84" fill="url(#gold)"/><rect x="190" y="470" width="22" height="84" fill="url(#gold)"/>
    <rect x="240" y="494" width="700" height="36" rx="18" fill="url(#bar)"/>
    <g fill="none" stroke="url(#steel)" stroke-width="46">
      <ellipse cx="400" cy="512" rx="105" ry="250"/>
      <ellipse cx="620" cy="512" rx="105" ry="250"/>
      <ellipse cx="820" cy="700" rx="105" ry="200" transform="translate(0 0)"/>
    </g>
    <path d="M295 512a105 250 0 0 1 210 0" fill="none" stroke="url(#bar)" stroke-width="0"/>
    <rect x="295" y="494" width="46" height="36" fill="url(#bar)"/><rect x="515" y="494" width="46" height="36" fill="url(#bar)"/>
  </g>
</svg>
