<svg xmlns="http://www.w3.org/2000/svg" viewBox="0 0 512 512"><defs><linearGradient id="s" x1="0" y1="0" x2="0" y2="1"><stop offset="0" stop-color="#3f9fe0"/><stop offset="0.6" stop-color="#bfe6f2"/><stop offset="1" stop-color="#e9f6ea"/></linearGradient><linearGradient id="g" x1="0" y1="0" x2="0" y2="1"><stop offset="0" stop-color="#5cae4a"/><stop offset="1" stop-color="#2f7a3a"/></linearGradient></defs><rect width="512" height="512" rx="96" fill="url(#s)"/><rect y="330" width="512" height="182" fill="url(#g)"/><path d="M0 330 q130-40 256-20 t256 20 v8 h-512z" fill="#2a8c8a"/><g fill="#7a5a3a"><path d="M90 340 q-10-120 24-190 l14 4 q-30 70-18 186z"/><path d="M420 340 q10-110-20-170 l-14 6 q26 62 20 164z"/></g><g fill="#2f8a45"><path d="M114 150 q-70-10-96 30 q60-20 96-10z"/><path d="M116 150 q-20-60-80-70 q50 30 80 70z"/><path d="M118 150 q40-50 100-40 q-60 4-100 40z"/><path d="M400 168 q70-6 100 36 q-62-24-100-12z"/><path d="M398 168 q10-60 70-84 q-40 40-70 84z"/><path d="M396 170 q-30-50-90-52 q58 14 90 52z"/></g><g transform="rotate(32 256 300)"><path d="M236 120 l40 0 l30 230 l-100 0z" fill="#d9b27a"/><path d="M236 120 l20 -22 l20 22z" fill="#b88a52"/><rect x="226" y="340" width="60" height="120" rx="14" fill="#3a2a1c"/></g><circle cx="380" cy="300" r="46" fill="#f2641f"/><rect x="334" y="288" width="92" height="22" fill="#fff1d6" opacity="0.9"/><ellipse cx="366" cy="278" rx="14" ry="8" fill="#fff" opacity="0.5"/></svg>
